<svg width="36" height="40" viewBox="0 0 36 40" fill="none" xmlns="http://www.w3.org/2000/svg">
<path d="M4.0033 40C2.9033 40 1.96163 39.6083 1.1783 38.825C0.394963 38.0417 0.0032959 37.1 0.0032959 36V8C0.0032959 6.9 0.394963 5.95833 1.1783 5.175C1.96163 4.39167 2.9033 4 4.0033 4H6.0033V0H10.0033V4H26.0033V0H30.0033V4H32.0033C33.1033 4 34.045 4.39167 34.8283 5.175C35.6116 5.95833 36.0033 6.9 36.0033 8V36C36.0033 37.1 35.6116 38.0417 34.8283 38.825C34.045 39.6083 33.1033 40 32.0033 40H4.0033ZM4.0033 36H32.0033V16H4.0033V36ZM4.0033 12H32.0033V8H4.0033V12ZM18.0033 24C17.4366 24 16.9616 23.8083 16.5783 23.425C16.195 23.0417 16.0033 22.5667 16.0033 22C16.0033 21.4333 16.195 20.9583 16.5783 20.575C16.9616 20.1917 17.4366 20 18.0033 20C18.57 20 19.045 20.1917 19.4283 20.575C19.8116 20.9583 20.0033 21.4333 20.0033 22C20.0033 22.5667 19.8116 23.0417 19.4283 23.425C19.045 23.8083 18.57 24 18.0033 24ZM10.0033 24C9.43663 24 8.96163 23.8083 8.5783 23.425C8.19496 23.0417 8.0033 22.5667 8.0033 22C8.0033 21.4333 8.19496 20.9583 8.5783 20.575C8.96163 20.1917 9.43663 20 10.0033 20C10.57 20 11.045 20.1917 11.4283 20.575C11.8116 20.9583 12.0033 21.4333 12.0033 22C12.0033 22.5667 11.8116 23.0417 11.4283 23.425C11.045 23.8083 10.57 24 10.0033 24ZM26.0033 24C25.4366 24 24.9616 23.8083 24.5783 23.425C24.195 23.0417 24.0033 22.5667 24.0033 22C24.0033 21.4333 24.195 20.9583 24.5783 20.575C24.9616 20.1917 25.4366 20 26.0033 20C26.57 20 27.045 20.1917 27.4283 20.575C27.8116 20.9583 28.0033 21.4333 28.0033 22C28.0033 22.5667 27.8116 23.0417 27.4283 23.425C27.045 23.8083 26.57 24 26.0033 24ZM18.0033 32C17.4366 32 16.9616 31.8083 16.5783 31.425C16.195 31.0417 16.0033 30.5667 16.0033 30C16.0033 29.4333 16.195 28.9583 16.5783 28.575C16.9616 28.1917 17.4366 28 18.0033 28C18.57 28 19.045 28.1917 19.4283 28.575C19.8116 28.9583 20.0033 29.4333 20.0033 30C20.0033 30.5667 19.8116 31.0417 19.4283 31.425C19.045 31.8083 18.57 32 18.0033 32ZM10.0033 32C9.43663 32 8.96163 31.8083 8.5783 31.425C8.19496 31.0417 8.0033 30.5667 8.0033 30C8.0033 29.4333 8.19496 28.9583 8.5783 28.575C8.96163 28.1917 9.43663 28 10.0033 28C10.57 28 11.045 28.1917 11.4283 28.575C11.8116 28.9583 12.0033 29.4333 12.0033 30C12.0033 30.5667 11.8116 31.0417 11.4283 31.425C11.045 31.8083 10.57 32 10.0033 32ZM26.0033 32C25.4366 32 24.9616 31.8083 24.5783 31.425C24.195 31.0417 24.0033 30.5667 24.0033 30C24.0033 29.4333 24.195 28.9583 24.5783 28.575C24.9616 28.1917 25.4366 28 26.0033 28C26.57 28 27.045 28.1917 27.4283 28.575C27.8116 28.9583 28.0033 29.4333 28.0033 30C28.0033 30.5667 27.8116 31.0417 27.4283 31.425C27.045 31.8083 26.57 32 26.0033 32Z" fill="#1C1B1F"/>
</svg>
