<svg width="36" height="36" viewBox="0 0 36 36" fill="none" xmlns="http://www.w3.org/2000/svg">
<path d="M3.9967 36C2.8967 36 1.95504 35.6083 1.1717 34.825C0.388371 34.0417 -0.0032959 33.1 -0.0032959 32V4C-0.0032959 2.9 0.388371 1.95833 1.1717 1.175C1.95504 0.391667 2.8967 0 3.9967 0H31.9967C33.0967 0 34.0384 0.391667 34.8217 1.175C35.605 1.95833 35.9967 2.9 35.9967 4V32C35.9967 33.1 35.605 34.0417 34.8217 34.825C34.0384 35.6083 33.0967 36 31.9967 36H3.9967ZM3.9967 4V32H31.9967V4H27.9967V18L22.9967 15L17.9967 18V4H3.9967Z" fill="#1C1B1F"/>
</svg>
