<svg width="36" height="36" viewBox="0 0 36 36" fill="none" xmlns="http://www.w3.org/2000/svg">
<path d="M3.99011 29.7C5.79011 27.9333 7.88178 26.5417 10.2651 25.525C12.6484 24.5083 15.2234 24 17.9901 24C20.7568 24 23.3318 24.5083 25.7151 25.525C28.0984 26.5417 30.1901 27.9333 31.9901 29.7V4H3.99011V29.7ZM17.9901 20C19.9234 20 21.5734 19.3167 22.9401 17.95C24.3068 16.5833 24.9901 14.9333 24.9901 13C24.9901 11.0667 24.3068 9.41667 22.9401 8.05C21.5734 6.68333 19.9234 6 17.9901 6C16.0568 6 14.4068 6.68333 13.0401 8.05C11.6734 9.41667 10.9901 11.0667 10.9901 13C10.9901 14.9333 11.6734 16.5833 13.0401 17.95C14.4068 19.3167 16.0568 20 17.9901 20ZM3.99011 36C2.89011 36 1.94845 35.6083 1.16511 34.825C0.381779 34.0417 -0.0098877 33.1 -0.0098877 32V4C-0.0098877 2.9 0.381779 1.95833 1.16511 1.175C1.94845 0.391667 2.89011 0 3.99011 0H31.9901C33.0901 0 34.0318 0.391667 34.8151 1.175C35.5984 1.95833 35.9901 2.9 35.9901 4V32C35.9901 33.1 35.5984 34.0417 34.8151 34.825C34.0318 35.6083 33.0901 36 31.9901 36H3.99011ZM7.44011 32H28.5401C27.0734 30.7 25.4151 29.7083 23.5651 29.025C21.7151 28.3417 19.8568 28 17.9901 28C16.1234 28 14.2484 28.3417 12.3651 29.025C10.4818 29.7083 8.84011 30.7 7.44011 32ZM17.9901 16C17.1568 16 16.4484 15.7083 15.8651 15.125C15.2818 14.5417 14.9901 13.8333 14.9901 13C14.9901 12.1667 15.2818 11.4583 15.8651 10.875C16.4484 10.2917 17.1568 10 17.9901 10C18.8234 10 19.5318 10.2917 20.1151 10.875C20.6984 11.4583 20.9901 12.1667 20.9901 13C20.9901 13.8333 20.6984 14.5417 20.1151 15.125C19.5318 15.7083 18.8234 16 17.9901 16Z" fill="black"/>
</svg>
