<svg width="37" height="40" viewBox="0 0 37 40" fill="none" xmlns="http://www.w3.org/2000/svg">
<path d="M8.75 28H22.75V32H8.75V28ZM8.75 20H28.75V24H8.75V20ZM8.75 12H28.75V16H8.75V12ZM32.75 4H24.39C23.55 1.68 21.35 0 18.75 0C16.15 0 13.95 1.68 13.11 4H4.75C4.47 4 4.21 4.02 3.95 4.08C3.17 4.24 2.47 4.64 1.93 5.18C1.57 5.54 1.27 5.98 1.07 6.46C0.87 6.92 0.75 7.44 0.75 8V36C0.75 36.54 0.87 37.08 1.07 37.56C1.27 38.04 1.57 38.46 1.93 38.84C2.47 39.38 3.17 39.78 3.95 39.94C4.21 39.98 4.47 40 4.75 40H32.75C34.95 40 36.75 38.2 36.75 36V8C36.75 5.8 34.95 4 32.75 4ZM18.75 3.5C19.57 3.5 20.25 4.18 20.25 5C20.25 5.82 19.57 6.5 18.75 6.5C17.93 6.5 17.25 5.82 17.25 5C17.25 4.18 17.93 3.5 18.75 3.5ZM32.75 36H4.75V8H32.75V36Z" fill="black"/>
</svg>
